<?xml version="1.0" standalone="no"?>
<!DOCTYPE svg PUBLIC "-//W3C//DTD SVG 20010904//EN"
 "http://www.w3.org/TR/2001/REC-SVG-20010904/DTD/svg10.dtd">
<svg version="1.0" xmlns="http://www.w3.org/2000/svg"
 width="600.000000pt" height="600.000000pt" viewBox="0 0 1200.000000 1200.000000"
 preserveAspectRatio="xMidYMid meet">

<g transform="translate(0.000000,1200.000000) scale(0.100000,-0.100000)"
fill="#000000" stroke="none">
<path d="M5575 11980 c-124 -10 -364 -37 -440 -49 l-50 -8 80 -7 c44 -4 134
-14 200 -22 66 -9 158 -19 205 -24 47 -5 128 -17 180 -28 52 -11 104 -20 115
-20 11 -1 59 -12 108 -26 48 -14 95 -26 104 -26 29 0 301 -81 423 -126 36 -13
69 -24 73 -24 5 0 27 -8 50 -19 59 -25 80 -34 92 -35 6 -1 31 -11 57 -24 26
-12 53 -22 60 -22 7 0 29 -10 48 -23 19 -12 59 -33 88 -47 30 -14 90 -44 135
-67 45 -24 105 -54 132 -68 28 -13 71 -37 96 -52 26 -16 80 -47 121 -71 42
-23 81 -49 88 -57 7 -8 16 -15 21 -15 13 0 113 -66 128 -84 7 -9 17 -13 22
-11 4 3 11 -1 16 -8 4 -7 26 -26 48 -43 253 -187 361 -280 600 -519 239 -239
332 -347 519 -600 17 -22 36 -44 43 -48 7 -5 11 -12 8 -16 -2 -5 2 -15 11 -22
18 -15 84 -115 84 -128 0 -5 7 -14 15 -21 8 -7 34 -46 57 -88 24 -41 55 -95
70 -121 37 -62 139 -260 192 -371 11 -25 28 -56 37 -70 9 -14 22 -43 29 -65 7
-22 21 -55 32 -73 10 -18 17 -36 16 -40 -1 -7 14 -49 32 -87 13 -28 50 -132
65 -185 8 -25 23 -72 35 -105 12 -33 23 -69 24 -80 2 -11 11 -45 20 -75 10
-30 21 -75 25 -100 5 -25 18 -81 31 -125 12 -44 23 -93 24 -110 1 -16 12 -82
24 -145 22 -116 44 -290 62 -475 12 -129 12 -641 0 -770 -18 -185 -40 -359
-62 -475 -12 -63 -23 -128 -24 -145 -1 -16 -12 -66 -24 -110 -13 -44 -26 -100
-30 -125 -5 -25 -16 -67 -25 -93 -9 -26 -18 -60 -20 -75 -2 -15 -14 -54 -25
-87 -12 -33 -28 -80 -35 -105 -15 -52 -51 -155 -65 -185 -18 -38 -33 -80 -32
-87 1 -4 -6 -22 -16 -40 -11 -18 -25 -51 -32 -73 -7 -22 -20 -51 -29 -65 -9
-14 -29 -52 -45 -85 -54 -113 -144 -289 -184 -356 -15 -26 -46 -80 -70 -121
-23 -42 -49 -81 -57 -88 -8 -7 -15 -16 -15 -21 0 -13 -66 -113 -84 -128 -9 -7
-13 -17 -11 -22 3 -4 -1 -11 -8 -16 -7 -4 -26 -26 -43 -48 -63 -85 -214 -277
-260 -331 -69 -81 -446 -458 -524 -525 -82 -70 -288 -231 -339 -265 -22 -14
-42 -32 -45 -40 -3 -9 -10 -13 -15 -10 -5 3 -15 -1 -22 -10 -15 -18 -115 -84
-128 -84 -5 0 -14 -7 -21 -15 -7 -8 -46 -34 -88 -57 -41 -24 -95 -55 -121 -70
-67 -40 -243 -130 -356 -184 -33 -16 -71 -36 -85 -45 -14 -9 -43 -22 -65 -29
-22 -7 -55 -21 -73 -32 -18 -10 -36 -17 -40 -16 -7 1 -49 -14 -87 -32 -30 -14
-133 -50 -185 -65 -25 -7 -72 -23 -105 -35 -33 -11 -72 -23 -86 -25 -15 -2
-55 -13 -89 -24 -35 -12 -71 -21 -82 -21 -10 0 -57 -11 -105 -26 -49 -14 -104
-26 -123 -28 -19 -1 -87 -12 -150 -24 -116 -22 -290 -44 -475 -62 -129 -12
-641 -12 -770 0 -185 18 -359 40 -475 62 -63 12 -128 23 -145 25 -16 1 -66 12
-110 24 -44 12 -100 25 -125 29 -25 5 -67 16 -93 25 -26 9 -60 18 -75 20 -15
2 -54 13 -87 25 -33 12 -80 27 -105 35 -53 15 -157 52 -185 65 -38 18 -80 33
-87 32 -4 -1 -22 6 -40 16 -18 11 -51 25 -73 32 -22 7 -45 17 -51 21 -6 5
-101 54 -210 110 -176 88 -229 116 -309 163 -11 6 -46 26 -77 44 -31 18 -62
40 -68 47 -7 8 -16 15 -21 15 -13 0 -113 66 -128 84 -7 9 -17 13 -22 11 -4 -3
-11 1 -16 8 -8 12 -146 121 -181 142 -10 6 -19 13 -22 17 -3 3 -30 26 -61 50
-154 119 -532 489 -668 653 -110 133 -124 150 -136 168 -32 48 -113 154 -134
174 -13 13 -20 23 -16 23 5 0 -2 12 -16 27 -30 33 -79 109 -79 122 0 5 -7 14
-15 21 -8 7 -34 46 -57 88 -24 41 -55 95 -70 121 -15 25 -49 89 -76 141 -27
52 -57 109 -65 125 -9 17 -32 63 -52 104 -19 41 -39 79 -44 85 -5 6 -14 29
-21 51 -7 22 -21 55 -32 73 -10 18 -17 36 -16 40 1 7 -14 49 -32 87 -13 28
-50 132 -65 185 -28 95 -59 174 -63 162 -6 -18 25 -280 54 -457 33 -202 86
-443 133 -611 345 -1220 1027 -2265 1994 -3058 827 -677 1864 -1135 2912
-1285 338 -49 452 -56 875 -56 435 0 572 9 910 61 1367 209 2635 897 3554
1928 557 625 967 1334 1231 2131 138 418 222 817 272 1290 25 243 25 907 0
1150 -50 473 -134 872 -272 1290 -300 904 -785 1694 -1455 2366 -360 360 -718
641 -1170 916 -613 373 -1367 649 -2100 768 -321 52 -508 67 -910 70 -206 2
-424 -1 -485 -5z"/>
</g>
</svg>
